HIERARCHY
ROOT Hips
{
  OFFSET 0.000 67.371 0.000
  CHANNELS 6 Xposition Yposition Zposition Zrotation Xrotation Yrotation
  JOINT LeftUpLeg
  {
    OFFSET 6.947 1.246 3.040
    CHANNELS 6 Xposition Yposition Zposition Zrotation Xrotation Yrotation
    JOINT LeftLeg
    {
      OFFSET 0.000 -34.764 0.000
      CHANNELS 6 Xposition Yposition Zposition Zrotation Xrotation Yrotation
      JOINT LeftFoot
      {
        OFFSET 0.000 -33.854 0.000
        CHANNELS 6 Xposition Yposition Zposition Zrotation Xrotation Yrotation
        End Site
        {
          OFFSET 0.000 0.000 9.850
        }
      }
    }
  }
  JOINT RightUpLeg
  {
    OFFSET -6.947 1.246 3.040
    CHANNELS 6 Xposition Yposition Zposition Zrotation Xrotation Yrotation
    JOINT RightLeg
    {
      OFFSET 0.000 -34.764 0.000
      CHANNELS 6 Xposition Yposition Zposition Zrotation Xrotation Yrotation
      JOINT RightFoot
      {
        OFFSET 0.000 -33.854 0.000
        CHANNELS 6 Xposition Yposition Zposition Zrotation Xrotation Yrotation
        End Site
        {
          OFFSET 0.000 0.000 9.850
        }
      }
    }
  }
  JOINT Spine
  {
    OFFSET 0.000 30.692 0.000
    CHANNELS 6 Xposition Yposition Zposition Zrotation Xrotation Yrotation
    JOINT Spine1
    {
      OFFSET 0.000 22.756 0.000
      CHANNELS 6 Xposition Yposition Zposition Zrotation Xrotation Yrotation
      JOINT LeftShoulder
      {
        OFFSET 1.624 -0.480 0.099
        CHANNELS 6 Xposition Yposition Zposition Zrotation Xrotation Yrotation
        JOINT LeftArm
        {
          OFFSET 15.106 0.000 0.000
          CHANNELS 6 Xposition Yposition Zposition Zrotation Xrotation Yrotation
          JOINT LeftForeArm
          {
            OFFSET 27.389 0.000 0.000
            CHANNELS 6 Xposition Yposition Zposition Zrotation Xrotation Yrotation
            JOINT LeftHand
            {
              OFFSET 22.792 0.000 0.000
              CHANNELS 6 Xposition Yposition Zposition Zrotation Xrotation Yrotation
              JOINT LeftHandThumb1
              {
                OFFSET 0.000 0.000 0.000
                CHANNELS 6 Xposition Yposition Zposition Zrotation Xrotation Yrotation
                JOINT LeftHandThumb2
                {
                  OFFSET 0.000 0.000 0.000
                  CHANNELS 6 Xposition Yposition Zposition Zrotation Xrotation Yrotation
                  JOINT LeftHandThumb3
                  {
                    OFFSET 0.000 0.000 0.000
                    CHANNELS 6 Xposition Yposition Zposition Zrotation Xrotation Yrotation
                    End Site
                    {
                      OFFSET 0.000 0.000 0.000
                    }
                  }
                }
              }
              JOINT LeftHandIndex1
              {
                OFFSET 0.000 0.000 0.000
                CHANNELS 6 Xposition Yposition Zposition Zrotation Xrotation Yrotation
                JOINT LeftHandIndex2
                {
                  OFFSET 0.000 0.000 0.000
                  CHANNELS 6 Xposition Yposition Zposition Zrotation Xrotation Yrotation
                  JOINT LeftHandIndex3
                  {
                    OFFSET 0.000 0.000 0.000
                    CHANNELS 6 Xposition Yposition Zposition Zrotation Xrotation Yrotation
                    End Site
                    {
                      OFFSET 0.000 0.000 0.000
                    }
                  }
                }
              }
              JOINT LeftHandMiddle1
              {
                OFFSET 0.000 0.000 0.000
                CHANNELS 6 Xposition Yposition Zposition Zrotation Xrotation Yrotation
                JOINT LeftHandMiddle2
                {
                  OFFSET 0.000 0.000 0.000
                  CHANNELS 6 Xposition Yposition Zposition Zrotation Xrotation Yrotation
                  JOINT LeftHandMiddle3
                  {
                    OFFSET 0.000 0.000 0.000
                    CHANNELS 6 Xposition Yposition Zposition Zrotation Xrotation Yrotation
                    End Site
                    {
                      OFFSET 0.000 0.000 0.000
                    }
                  }
                }
              }
              JOINT LeftHandRing1
              {
                OFFSET 0.000 0.000 0.000
                CHANNELS 6 Xposition Yposition Zposition Zrotation Xrotation Yrotation
                JOINT LeftHandRing2
                {
                  OFFSET 0.000 0.000 0.000
                  CHANNELS 6 Xposition Yposition Zposition Zrotation Xrotation Yrotation
                  JOINT LeftHandRing3
                  {
                    OFFSET 0.000 0.000 0.000
                    CHANNELS 6 Xposition Yposition Zposition Zrotation Xrotation Yrotation
                    End Site
                    {
                      OFFSET 0.000 0.000 0.000
                    }
                  }
                }
              }
              JOINT LeftHandPinky1
              {
                OFFSET 0.000 0.000 0.000
                CHANNELS 6 Xposition Yposition Zposition Zrotation Xrotation Yrotation
                JOINT LeftHandPinky2
                {
                  OFFSET 0.000 0.000 0.000
                  CHANNELS 6 Xposition Yposition Zposition Zrotation Xrotation Yrotation
                  JOINT LeftHandPinky3
                  {
                    OFFSET 0.000 0.000 0.000
                    CHANNELS 6 Xposition Yposition Zposition Zrotation Xrotation Yrotation
                    End Site
                    {
                      OFFSET 0.000 0.000 0.000
                    }
                  }
                }
              }
            }
          }
        }
      }
      JOINT RightShoulder
      {
        OFFSET -1.624 -0.480 0.099
        CHANNELS 6 Xposition Yposition Zposition Zrotation Xrotation Yrotation
        JOINT RightArm
        {
          OFFSET -15.106 0.000 0.000
          CHANNELS 6 Xposition Yposition Zposition Zrotation Xrotation Yrotation
          JOINT RightForeArm
          {
            OFFSET -27.389 0.000 0.000
            CHANNELS 6 Xposition Yposition Zposition Zrotation Xrotation Yrotation
            JOINT RightHand
            {
              OFFSET -22.792 0.000 0.000
              CHANNELS 6 Xposition Yposition Zposition Zrotation Xrotation Yrotation
              JOINT RightHandThumb1
              {
                OFFSET -0.000 0.000 0.000
                CHANNELS 6 Xposition Yposition Zposition Zrotation Xrotation Yrotation
                JOINT RightHandThumb2
                {
                  OFFSET -0.000 0.000 0.000
                  CHANNELS 6 Xposition Yposition Zposition Zrotation Xrotation Yrotation
                  JOINT RightHandThumb3
                  {
                    OFFSET -0.000 0.000 0.000
                    CHANNELS 6 Xposition Yposition Zposition Zrotation Xrotation Yrotation
                    End Site
                    {
                      OFFSET -0.000 0.000 0.000
                    }
                  }
                }
              }
              JOINT RightHandIndex1
              {
                OFFSET -0.000 0.000 0.000
                CHANNELS 6 Xposition Yposition Zposition Zrotation Xrotation Yrotation
                JOINT RightHandIndex2
                {
                  OFFSET -0.000 0.000 0.000
                  CHANNELS 6 Xposition Yposition Zposition Zrotation Xrotation Yrotation
                  JOINT RightHandIndex3
                  {
                    OFFSET -0.000 0.000 0.000
                    CHANNELS 6 Xposition Yposition Zposition Zrotation Xrotation Yrotation
                    End Site
                    {
                      OFFSET -0.000 0.000 0.000
                    }
                  }
                }
              }
              JOINT RightHandMiddle1
              {
                OFFSET -0.000 0.000 0.000
                CHANNELS 6 Xposition Yposition Zposition Zrotation Xrotation Yrotation
                JOINT RightHandMiddle2
                {
                  OFFSET -0.000 0.000 0.000
                  CHANNELS 6 Xposition Yposition Zposition Zrotation Xrotation Yrotation
                  JOINT RightHandMiddle3
                  {
                    OFFSET -0.000 0.000 0.000
                    CHANNELS 6 Xposition Yposition Zposition Zrotation Xrotation Yrotation
                    End Site
                    {
                      OFFSET -0.000 0.000 0.000
                    }
                  }
                }
              }
              JOINT RightHandRing1
              {
                OFFSET -0.000 0.000 0.000
                CHANNELS 6 Xposition Yposition Zposition Zrotation Xrotation Yrotation
                JOINT RightHandRing2
                {
                  OFFSET -0.000 0.000 0.000
                  CHANNELS 6 Xposition Yposition Zposition Zrotation Xrotation Yrotation
                  JOINT RightHandRing3
                  {
                    OFFSET -0.000 0.000 0.000
                    CHANNELS 6 Xposition Yposition Zposition Zrotation Xrotation Yrotation
                    End Site
                    {
                      OFFSET -0.000 0.000 0.000
                    }
                  }
                }
              }
              JOINT RightHandPinky1
              {
                OFFSET -0.000 0.000 0.000
                CHANNELS 6 Xposition Yposition Zposition Zrotation Xrotation Yrotation
                JOINT RightHandPinky2
                {
                  OFFSET -0.000 0.000 0.000
                  CHANNELS 6 Xposition Yposition Zposition Zrotation Xrotation Yrotation
                  JOINT RightHandPinky3
                  {
                    OFFSET -0.000 0.000 0.000
                    CHANNELS 6 Xposition Yposition Zposition Zrotation Xrotation Yrotation
                    End Site
                    {
                      OFFSET -0.000 0.000 0.000
                    }
                  }
                }
              }
            }
          }
        }
      }
      JOINT Neck
      {
        OFFSET 0.000 0.754 0.000
        CHANNELS 6 Xposition Yposition Zposition Zrotation Xrotation Yrotation
        JOINT Head
        {
          OFFSET 0.000 6.846 0.000
          CHANNELS 6 Xposition Yposition Zposition Zrotation Xrotation Yrotation
          End Site
          {
            OFFSET 0.000 15.969 0.000
          }
        }
      }
    }
  }
}
MOTION
Frames:	4
Frame Time:	0.033333
1.38792 65.34776 -237.28334 30.31097 19.41416 -18.84946 8.48405 1.79380 2.84805 9.59822 -29.88397 30.13262 -0.01507 -33.07696 -0.04614 -10.20481 12.58318 -7.98909 -0.06592 -33.41625 0.02358 0.04383 35.68822 -0.19540 -5.85754 1.49019 2.82415 -64.21743 -58.72399 -33.70504 -0.01650 -32.98159 0.02125 26.60794 56.37922 -20.94597 0.01237 -33.33332 0.01048 1.53443 25.17322 -3.75258 0.00486 30.50721 -0.00490 0.50260 2.42696 1.77522 0.00071 22.45156 -0.00865 -0.23000 2.66812 2.32369 1.50001 -0.16893 0.03514 -5.68401 0.11352 -0.78558 13.62054 0.06716 -0.01184 -58.78386 8.94458 -6.94990 25.97949 -0.13561 0.08342 -20.43608 13.00305 -33.48638 25.03821 -0.07314 -0.00679 -9.01810 11.81510 2.67850 4.87700 -1.04399 3.60801 -41.57428 -8.45955 -7.72709 2.66501 0.00001 0.00002 0.00000 -0.00000 4.99561 2.54298 -0.00001 0.00000 -0.00001 0.00000 59.99541 9.23197 -0.30099 2.14400 -79.99744 -0.00000 0.00001 4.22503 0.00001 0.00000 -89.99713 -0.00000 0.00000 2.65402 -0.00003 0.00000 -69.99775 -0.00000 0.00000 8.91998 0.00000 0.00000 -79.99622 -0.00000 0.00001 4.86300 0.00000 -0.00002 -89.99576 -0.00000 0.00000 2.76500 -0.00000 0.00000 -69.99464 -0.00000 0.00000 8.68900 -0.12600 -2.08700 -79.99622 -0.00000 0.00001 4.53800 0.00000 0.00000 -89.99576 -0.00000 0.00000 2.30500 -0.00002 0.00000 -69.99464 -0.00000 0.00000 8.39097 -0.81699 -3.75800 -79.99744 -0.00000 0.00001 3.04400 0.00000 0.00000 -89.99713 -0.00000 0.00000 1.97500 0.00000 0.00002 -69.99775 -0.00000 0.00000 -1.46737 -0.72996 0.01660 26.45504 0.36626 0.64404 -14.82494 -0.01716 0.00501 61.00987 2.88180 5.37892 -22.25890 0.04373 0.01485 -3.21636 -4.37871 58.28884 -23.92077 -0.15886 -0.10840 4.35146 -11.71080 -23.94005 -4.87700 -1.04401 3.60801 37.43732 21.26459 8.20511 -2.66500 -0.00001 -0.00001 -0.00000 -0.00000 -5.00000 -2.54300 -0.00001 -0.00002 0.00000 -0.00000 -60.00000 -9.23199 -0.30102 2.14400 79.99864 -0.00000 0.00000 -4.22500 0.00002 0.00000 89.99848 -0.00000 0.00001 -2.65402 -0.00002 -0.00005 69.99881 0.00000 0.00000 -8.92000 -0.00002 0.00000 80.00000 -0.00000 0.00000 -4.86299 0.00000 0.00000 90.00000 -0.00000 0.00001 -2.76501 -0.00001 0.00000 69.99999 0.00000 0.00000 -8.68899 -0.12602 -2.08700 80.00000 -0.00000 0.00000 -4.53799 0.00001 0.00000 90.00000 -0.00000 0.00001 -2.30502 0.00001 -0.00005 69.99999 0.00000 0.00000 -8.39100 -0.81701 -3.75800 79.99864 -0.00000 0.00000 -3.04400 0.00000 -0.00002 89.99848 -0.00000 0.00001 -1.97500 0.00001 -0.00002 69.99881 0.00000 0.00000 0.00739 0.76053 0.00000 0.00015 -0.00010 -0.00002 -0.01205 6.74748 0.01239 29.38962 4.20835 -12.20682 
1.73244 65.33985 -237.43697 31.64254 19.38650 -19.45251 8.49172 1.73586 2.82707 7.42170 -29.84915 29.80520 -0.00409 -32.82990 -0.01773 -9.42407 11.01765 -7.74209 -0.04350 -33.37672 0.01694 -0.34339 37.06704 0.41778 -5.76701 1.50182 2.80775 -66.43521 -58.46224 -34.13899 -0.01556 -32.96159 0.02774 27.06688 55.13590 -20.52971 0.01238 -33.27784 0.00688 1.10528 24.55919 -2.76142 0.00019 30.48403 -0.00639 1.39931 2.45534 1.60452 -0.02890 22.52922 -0.00909 -0.18989 2.61551 2.16330 1.55824 -0.18844 0.01726 -6.59535 0.03004 -0.30226 14.06005 0.07724 -0.01025 -58.52642 7.87466 -6.31963 25.53459 -0.14223 0.06237 -21.70359 12.96624 -32.14718 24.32669 -0.09828 0.03683 -7.21439 10.64538 -0.05149 4.87700 -1.04399 3.60801 -41.57448 -8.45926 -7.72731 2.66501 0.00001 0.00002 0.00000 -0.00000 4.99561 2.54298 -0.00001 0.00000 -0.00001 0.00000 59.99541 9.23197 -0.30099 2.14400 -79.99781 -0.00000 0.00001 4.22503 0.00001 0.00000 -89.99754 -0.00000 0.00000 2.65402 -0.00003 0.00000 -69.99808 -0.00000 0.00000 8.91998 0.00000 0.00000 -79.99622 -0.00000 0.00001 4.86300 0.00000 -0.00002 -89.99576 -0.00000 0.00000 2.76500 -0.00000 0.00000 -69.99464 -0.00000 0.00000 8.68900 -0.12600 -2.08700 -79.99622 -0.00000 0.00001 4.53800 0.00000 0.00000 -89.99576 -0.00000 0.00000 2.30500 -0.00002 0.00000 -69.99464 -0.00000 0.00000 8.39097 -0.81699 -3.75800 -79.99781 -0.00000 0.00001 3.04400 0.00000 0.00000 -89.99754 -0.00000 0.00000 1.97500 0.00000 0.00002 -69.99808 -0.00000 0.00000 -1.48723 -0.75380 0.00392 26.80811 0.15324 0.19136 -15.04422 -0.04387 0.00424 60.53688 5.35490 5.63400 -21.86081 0.06167 -0.01438 -2.32042 -4.29245 54.51248 -24.85048 -0.32018 -0.28563 -6.70507 -11.53462 -21.57408 -4.87700 -1.04401 3.60801 37.43734 21.26464 8.20515 -2.66500 -0.00001 -0.00001 -0.00000 -0.00000 -5.00000 -2.54300 -0.00001 -0.00002 0.00000 -0.00000 -60.00000 -9.23199 -0.30102 2.14400 79.99868 -0.00000 0.00000 -4.22500 0.00002 0.00000 89.99853 -0.00000 0.00001 -2.65402 -0.00002 -0.00005 69.99884 0.00000 0.00000 -8.92000 -0.00002 0.00000 80.00000 -0.00000 0.00000 -4.86299 0.00000 0.00000 90.00000 -0.00000 0.00001 -2.76501 -0.00001 0.00000 69.99999 0.00000 0.00000 -8.68899 -0.12602 -2.08700 80.00000 -0.00000 0.00000 -4.53799 0.00001 0.00000 90.00000 -0.00000 0.00001 -2.30502 0.00001 -0.00005 69.99999 0.00000 0.00000 -8.39100 -0.81701 -3.75800 79.99868 -0.00000 0.00000 -3.04400 0.00000 -0.00002 89.99853 -0.00000 0.00001 -1.97500 0.00001 -0.00002 69.99884 0.00000 0.00000 0.00739 0.76050 0.00000 0.00015 -0.00010 -0.00002 -0.01842 6.78712 0.01156 28.95183 3.71014 -12.62347 
2.01773 65.35091 -237.53418 32.88899 19.28937 -20.10876 8.50773 1.70647 2.80966 5.21933 -29.63466 29.41024 -0.00709 -33.09000 -0.01674 -8.58080 9.44694 -7.38431 -0.03520 -32.78664 -0.00681 -0.84137 38.43883 1.21973 -5.66420 1.49436 2.79433 -68.37389 -58.08573 -34.37371 -0.01454 -32.92546 0.02730 27.55157 53.74408 -19.93230 0.01261 -33.14047 0.00038 0.69524 24.69574 -1.79769 -0.00442 30.48492 -0.00800 1.62660 2.41941 1.56985 -0.03779 22.60709 -0.00955 -0.34346 2.57117 2.12974 1.60636 -0.19581 0.00264 -6.85771 -0.03029 0.10089 14.45794 0.07591 -0.00897 -58.64291 7.39265 -5.95200 25.00302 -0.12855 0.05100 -22.25075 12.36796 -30.93515 23.92034 -0.10407 0.04953 -6.91880 9.30478 -1.98548 4.87700 -1.04399 3.60801 -41.57468 -8.45898 -7.72752 2.66501 0.00001 0.00002 0.00000 -0.00000 4.99561 2.54298 -0.00001 0.00000 -0.00001 0.00000 59.99541 9.23197 -0.30099 2.14400 -79.99815 -0.00000 0.00001 4.22503 0.00001 0.00000 -89.99792 -0.00000 0.00000 2.65402 -0.00003 0.00000 -69.99837 -0.00000 0.00000 8.91998 0.00000 0.00000 -79.99622 -0.00000 0.00001 4.86300 0.00000 -0.00002 -89.99576 -0.00000 0.00000 2.76500 -0.00000 0.00000 -69.99464 -0.00000 0.00000 8.68900 -0.12600 -2.08700 -79.99622 -0.00000 0.00001 4.53800 0.00000 0.00000 -89.99576 -0.00000 0.00000 2.30500 -0.00002 0.00000 -69.99464 -0.00000 0.00000 8.39097 -0.81699 -3.75800 -79.99815 -0.00000 0.00001 3.04400 0.00000 0.00000 -89.99792 -0.00000 0.00000 1.97500 0.00000 0.00002 -69.99837 -0.00000 0.00000 -1.50362 -0.78015 -0.00703 27.35386 -0.05107 -0.18960 -15.25399 -0.05183 0.00345 60.16102 6.82931 5.59364 -21.62469 0.05673 -0.01642 -0.56873 -3.75807 52.32570 -24.79968 -0.29144 -0.17250 -13.98368 -11.06447 -20.35725 -4.87700 -1.04401 3.60801 37.43737 21.26468 8.20519 -2.66500 -0.00001 -0.00001 -0.00000 -0.00000 -5.00000 -2.54300 -0.00001 -0.00002 0.00000 -0.00000 -60.00000 -9.23199 -0.30102 2.14400 79.99872 -0.00000 0.00000 -4.22500 0.00002 0.00000 89.99857 -0.00000 0.00001 -2.65402 -0.00002 -0.00005 69.99888 0.00000 0.00000 -8.92000 -0.00002 0.00000 80.00000 -0.00000 0.00000 -4.86299 0.00000 0.00000 90.00000 -0.00000 0.00001 -2.76501 -0.00001 0.00000 69.99999 0.00000 0.00000 -8.68899 -0.12602 -2.08700 80.00000 -0.00000 0.00000 -4.53799 0.00001 0.00000 90.00000 -0.00000 0.00001 -2.30502 0.00001 -0.00005 69.99999 0.00000 0.00000 -8.39100 -0.81701 -3.75800 79.99872 -0.00000 0.00000 -3.04400 0.00000 -0.00002 89.99857 -0.00000 0.00001 -1.97500 0.00001 -0.00002 69.99888 0.00000 0.00000 0.00739 0.76053 0.00000 0.00015 -0.00010 -0.00002 -0.02346 6.81367 0.00870 30.32295 3.03530 -13.21861 
2.24391 65.38195 -237.59497 34.22278 19.05995 -20.90204 8.54718 1.69017 2.79718 3.14460 -29.26669 29.17419 -0.00423 -33.24405 -0.01210 -7.92925 7.90567 -7.24766 -0.02926 -32.42625 -0.01669 0.48614 37.85631 -1.11306 -5.56742 1.50112 2.78510 -70.21245 -57.77559 -34.42060 -0.01343 -32.88662 0.02552 27.98437 52.40918 -19.15984 0.01303 -32.92417 -0.00708 0.17768 25.64703 -0.63809 -0.01549 30.53307 -0.00979 1.79073 2.33249 1.55211 -0.05073 22.71173 -0.01005 -0.46560 2.48378 2.10061 1.64296 -0.20980 -0.00827 -7.26283 -0.07551 0.43297 14.71668 0.06967 -0.00780 -58.44330 6.77580 -5.59393 24.56235 -0.11080 0.03570 -23.06150 11.57660 -29.68166 23.82065 -0.09706 0.03412 -7.30446 8.15469 -3.77319 4.87700 -1.04399 3.60801 -41.57488 -8.45870 -7.72773 2.66501 0.00001 0.00002 0.00000 -0.00000 4.99561 2.54298 -0.00001 0.00000 -0.00001 0.00000 59.99541 9.23197 -0.30099 2.14400 -79.99847 -0.00000 0.00001 4.22503 0.00001 0.00000 -89.99829 -0.00000 0.00000 2.65402 -0.00003 0.00000 -69.99865 -0.00000 0.00000 8.91998 0.00000 0.00000 -79.99622 -0.00000 0.00001 4.86300 0.00000 -0.00002 -89.99576 -0.00000 0.00000 2.76500 -0.00000 0.00000 -69.99464 -0.00000 0.00000 8.68900 -0.12600 -2.08700 -79.99622 -0.00000 0.00001 4.53800 0.00000 0.00000 -89.99576 -0.00000 0.00000 2.30500 -0.00002 0.00000 -69.99464 -0.00000 0.00000 8.39097 -0.81699 -3.75800 -79.99847 -0.00000 0.00001 3.04400 0.00000 0.00000 -89.99829 -0.00000 0.00000 1.97500 0.00000 0.00002 -69.99865 -0.00000 0.00000 -1.51618 -0.80319 -0.01572 27.90565 -0.22665 -0.49701 -15.41959 -0.05035 0.00265 59.83921 7.87061 5.41134 -21.45372 0.04494 -0.00957 0.35302 -3.21520 50.95909 -24.92240 -0.25424 -0.12189 -20.16440 -10.66622 -19.91649 -4.87700 -1.04401 3.60801 37.43739 21.26473 8.20523 -2.66500 -0.00001 -0.00001 -0.00000 -0.00000 -5.00000 -2.54300 -0.00001 -0.00002 0.00000 -0.00000 -60.00000 -9.23199 -0.30102 2.14400 79.99876 -0.00000 0.00000 -4.22500 0.00002 0.00000 89.99861 -0.00000 0.00001 -2.65402 -0.00002 -0.00005 69.99892 0.00000 0.00000 -8.92000 -0.00002 0.00000 80.00000 -0.00000 0.00000 -4.86299 0.00000 0.00000 90.00000 -0.00000 0.00001 -2.76501 -0.00001 0.00000 69.99999 0.00000 0.00000 -8.68899 -0.12602 -2.08700 80.00000 -0.00000 0.00000 -4.53799 0.00001 0.00000 90.00000 -0.00000 0.00001 -2.30502 0.00001 -0.00005 69.99999 0.00000 0.00000 -8.39100 -0.81701 -3.75800 79.99876 -0.00000 0.00000 -3.04400 0.00000 -0.00002 89.99861 -0.00000 0.00001 -1.97500 0.00001 -0.00002 69.99892 0.00000 0.00000 0.00739 0.76061 0.00000 0.00015 -0.00010 -0.00002 -0.02811 6.84006 0.00482 31.20953 2.60743 -13.90229 
